<svg width="47" height="38" viewBox="0 0 47 38" fill="none" xmlns="http://www.w3.org/2000/svg">
<path id="Logo SVG" d="M23.5 14.5V23.5M19.603 16.75L27.397 21.25M27.397 16.75L19.6007 21.25M11.647 14.5V23.5M7.75 16.75L15.544 21.25M15.544 16.75L7.75 21.25M35.353 14.5V23.5M31.456 16.75L39.25 21.25M39.25 16.75L31.4538 21.25M46 19C46 27.4847 46 31.7282 43.363 34.363C40.7282 37 36.4847 37 28 37H19C10.5153 37 6.27175 37 3.637 34.363C1 31.7282 1 27.4847 1 19C1 10.5153 1 6.27175 3.637 3.637C6.27175 1 10.5153 1 19 1H28C36.4847 1 40.7282 1 43.363 3.637C44.8345 5.10625 45.4848 7.075 45.7705 10" stroke="#1A8597" stroke-width="1.4" stroke-linecap="round"/>
</svg>
